# xmcd
#
# Track frame offsets: 
#        150
#        19554
#        35517
#        54742
#        70441
#        84670
#
# Disc length: 1334 seconds
#
# Revision: 0
# Processed by: cddbd v1.5.1PL2 Copyright (c) Steve Scherf et al.
# Submitted via: ExactAudioCopy v0.95b2
#
DISCID=4b053406
DTITLE=The Hummingbirds - Depot Town
DYEAR=2004
DGENRE=Country
TTITLE0=Vancouver
TTITLE1=Can't Get You Off My Mind
TTITLE2=The Last Time We Talked
TTITLE3=Gonna Be Alright
TTITLE4=Feels Like Forever
TTITLE5=Cell Five
EXTD=
EXTT0=
EXTT1=
EXTT2=
EXTT3=
EXTT4=
EXTT5=
PLAYORDER=
